Coordinates
version=1
nRows=17
nColumns=34
inDegrees=yes

Units are S.I. units (second, meters, Newtons, ...)
If the header above contains a line with 'inDegrees', this indicates whether rotational values are in degrees (yes) or radians (no).

endheader
time	pelvis_tilt	pelvis_list	pelvis_rotation	pelvis_tx	pelvis_ty	pelvis_tz	hip_flexion_r	hip_adduction_r	hip_rotation_r	knee_angle_r	ankle_angle_r	subtalar_angle_r	mtp_angle_r	hip_flexion_l	hip_adduction_l	hip_rotation_l	knee_angle_l	ankle_angle_l	subtalar_angle_l	mtp_angle_l	lumbar_extension	lumbar_bending	lumbar_rotation	arm_flex_r	arm_add_r	arm_rot_r	elbow_flex_r	pro_sup_r	arm_flex_l	arm_add_l	arm_rot_l	elbow_flex_l	pro_sup_l
      2.09000000	      0.11566337	     -6.29817285	      2.59799818	     -0.56237753	      0.91384553	     -0.19276570	     15.90305928	     10.56826929	     -4.30646215	    -19.60274052	      1.89497442	     -3.84993885	      4.28032240	      2.24318674	     -7.84485200	      1.05522658	    -55.85740796	    -14.38627759	     -4.99835456	     31.58631561	     -4.75542166	     10.42496008	     -8.33230908	     -9.46385635	    -17.17851054	      2.28698104	     21.60823956	     90.00000000	     -1.80129377	    -15.35502950	     10.62906058	     31.68821316	     90.00000000
      2.10000000	      0.17625471	     -6.33273785	      2.93522560	     -0.55057035	      0.91555237	     -0.19225767	     14.62345322	     10.68144470	     -4.44913964	    -18.86784008	      2.42566654	     -3.72218191	      4.27007305	      4.29848471	     -7.62031927	      1.77329161	    -57.81095635	    -12.78538281	     -5.56200704	     31.63240605	     -4.94951324	     10.51205799	     -8.27193560	     -9.15170866	    -17.23877579	      2.25265244	     22.20329992	     90.00000000	     -1.69504962	    -15.22040509	     10.98304475	     30.90965207	     90.00000000
      2.11000000	      0.29240643	     -6.09881731	      3.31447304	     -0.53867312	      0.91747744	     -0.19180052	     13.30740931	     10.46909910	     -4.88765394	    -18.22447818	      3.05133143	     -3.17835125	      4.22795007	      6.20345974	     -7.01394330	      2.47003001	    -59.23563966	    -11.28749946	     -6.05042910	     31.69633446	     -5.16130730	     10.29586018	     -8.12211954	     -8.92757151	    -17.27011371	      2.28049754	     22.76086495	     90.00000000	     -1.40865273	    -15.15973103	     12.05708891	     29.70524170	     90.00000000
      2.12000000	      0.41319846	     -5.82397392	      3.56524148	     -0.52672425	      0.91933083	     -0.19129705	     11.95122111	     10.26120738	     -5.12479873	    -17.56455332	      3.78164748	     -2.52902248	      3.97635961	      8.00250595	     -6.35451071	      2.98671986	    -60.30758685	     -9.69062394	     -6.12037823	     31.71317744	     -5.38327530	     10.02015866	     -7.80653427	     -8.74114343	    -17.32824989	      2.43746924	     23.40158500	     90.00000000	     -1.07349068	    -15.13765313	     13.48726844	     28.48805835	     90.00000000
      2.13000000	      0.47578332	     -5.45542837	      3.74059377	     -0.51472323	      0.92115529	     -0.19063399	     10.56126266	     10.02766521	     -5.00006680	    -16.74683813	      4.31934169	     -2.40282975	      3.97618203	      9.74744699	     -5.60452943	      3.36025862	    -60.98894575	     -8.15031615	     -6.38123698	     31.84026862	     -5.56927932	      9.61215478	     -7.56547413	     -8.47467484	    -17.37099290	      2.43677988	     23.99937825	     90.00000000	     -1.26565817	    -15.16439993	     13.56701793	     28.28779534	     90.00000000
      2.14000000	      0.51642945	     -5.12387779	      3.89587908	     -0.50277946	      0.92286231	     -0.19004231	      9.21091023	      9.81254344	     -4.98744113	    -15.95840813	      4.77600019	     -2.18080480	      3.94465628	     11.44133122	     -4.91808792	      3.58394719	    -61.28591312	     -6.52649058	     -6.61137246	     31.94767119	     -5.70508620	      9.25968931	     -7.29568297	     -8.19728056	    -17.43645118	      2.47921086	     24.60225667	     90.00000000	     -1.37697825	    -15.09716193	     13.64079171	     27.80252940	     90.00000000
      2.15000000	      0.64753666	     -4.73130545	      3.99252766	     -0.49072859	      0.92460206	     -0.18934929	      7.81138628	      9.49781335	     -5.19501761	    -15.28487559	      5.44444176	     -1.39017725	      3.41954151	     12.89435950	     -4.20993499	      3.65255577	    -61.19560135	     -4.84085210	     -6.66107328	     31.59636966	     -5.93500793	      8.83875290	     -6.87020975	     -8.02313308	    -17.53562249	      2.83084371	     25.37124265	     90.00000000	     -1.02628809	    -14.97646993	     14.73663052	     26.10374612	     90.00000000
      2.16000000	      0.60203833	     -4.29775575	      4.01365941	     -0.47891954	      0.92593170	     -0.18846384	      6.52980721	      9.21904199	     -4.82027044	    -14.43211811	      5.86228391	     -1.41877653	      3.28066210	     14.46733348	     -3.50880992	      3.52360505	    -60.74750483	     -3.50741418	     -7.22284697	     31.57699534	     -6.00749829	      8.32856616	     -6.52660483	     -7.69096553	    -17.61832063	      2.87270529	     25.95463793	     90.00000000	     -1.30846674	    -15.05638399	     14.78982742	     25.93857735	     90.00000000
      2.17000000	      0.59117587	     -3.88928198	      3.84369209	     -0.46699125	      0.92717056	     -0.18742868	      5.25544795	      8.95997343	     -4.35667877	    -13.65611019	      6.12930055	     -1.39679269	      3.10966966	     15.88435345	     -2.91756493	      3.14731027	    -60.01459570	     -2.44817548	     -7.66899570	     31.50185867	     -6.11442426	      7.84609002	     -5.98775514	     -7.36344392	    -17.71143474	      3.03557089	     26.54066817	     90.00000000	     -1.45880973	    -15.00810814	     14.82380885	     25.29119270	     90.00000000
      2.18000000	      0.51729497	     -3.46187244	      3.60318619	     -0.45511957	      0.92810585	     -0.18627443	      4.04077703	      8.68084698	     -3.76896476	    -12.87213272	      6.53217720	     -1.42278942	      2.88708395	     17.24731195	     -2.34535459	      2.67880360	    -58.91583440	     -1.55805762	     -8.18345579	     31.16583656	     -6.14876523	      7.32242997	     -5.36934719	     -7.02969029	    -17.89040327	      3.34557740	     27.09984758	     90.00000000	     -1.63726206	    -14.99762286	     14.93204474	     24.69802672	     90.00000000
      2.19000000	      0.37082229	     -3.13410286	      3.50927484	     -0.44326918	      0.92870868	     -0.18524795	      2.93341503	      8.49052077	     -3.39297025	    -12.07200159	      6.79651654	     -1.37549322	      2.83918407	     18.63401118	     -1.85566249	      2.35713446	    -57.50733185	     -0.87696086	     -8.42746802	     31.00566099	     -6.09387804	      6.89238041	     -5.03453653	     -6.64226211	    -18.00294029	      3.42980876	     27.68015661	     90.00000000	     -2.04435698	    -15.06318645	     14.89903330	     24.58287287	     90.00000000
      2.20000000	      0.24517335	     -2.86126303	      3.30988184	     -0.43149459	      0.92904529	     -0.18411961	      1.79967213	      8.35119652	     -2.93004641	    -11.27970800	      7.08144631	     -1.36331640	      2.81154188	     19.90227174	     -1.50453903	      1.85749311	    -55.85612508	     -0.22243363	     -8.70309478	     30.83689672	     -6.06046545	      6.54648721	     -4.54421725	     -6.25557663	    -18.16898608	      3.55044484	     28.25918201	     90.00000000	     -2.41759299	    -15.09308118	     14.79365937	     24.35089510	     90.00000000
      2.21000000	      0.41484263	     -2.42541162	      2.80390666	     -0.41978086	      0.92970219	     -0.18259716	      0.28502596	      8.07852027	     -1.85394521	    -10.40728624	      7.31441993	     -2.05846838	      2.40784858	     20.62502414	     -1.10820115	      1.02941388	    -53.73799656	      0.31146324	     -9.21717347	     29.83889832	     -6.43707950	      5.99428470	     -3.68908037	     -5.78529447	    -18.43008918	      4.19576474	     28.77913019	     90.00000000	     -2.33688228	    -15.01643901	     14.80879967	     23.16228112	     90.00000000
      2.22000000	      0.22459712	     -2.26695985	      2.61951903	     -0.40797677	      0.92938735	     -0.18160078	     -0.81228600	      8.00469022	     -1.53833063	     -9.52161268	      7.69102996	     -1.91283308	      2.38956789	     21.78607516	     -0.85982052	      0.66118559	    -51.56568471	      0.85310313	     -9.28411500	     29.66165446	     -6.31409734	      5.78243774	     -3.28383289	     -5.36850831	    -18.62985669	      4.23240499	     29.35423590	     90.00000000	     -2.79869001	    -15.02205056	     14.67953070	     23.07307116	     90.00000000
      2.23000000	      0.07192133	     -2.22325814	      2.38343781	     -0.39606954	      0.92890722	     -0.18045439	     -1.89409481	      8.04472757	     -1.50373607	     -8.76690117	      8.04644796	     -1.72441367	      2.40662270	     22.78305875	     -0.77224180	      0.26533793	    -49.11638314	      1.14370965	     -9.34389865	     29.50626438	     -6.23731029	      5.71407597	     -2.78146204	     -5.01502039	    -18.88624627	      4.27075251	     29.89365284	     90.00000000	     -3.24809415	    -15.00980800	     14.51791848	     22.93347347	     90.00000000
      2.24000000	      0.68565684	     -1.82276059	      2.03735513	     -0.38406696	      0.92935512	     -0.17917045	     -3.99320035	      7.71012723	     -1.14369039	     -7.71007516	      8.83080233	     -1.04789274	     -0.01004435	     22.69992075	     -0.38102861	     -0.34749869	    -46.30328377	      2.39280318	     -8.92135432	     21.32871114	     -7.07160793	      5.21109914	     -2.07960850	     -4.52514644	    -19.13283496	      4.74723038	     30.56403553	     90.00000000	     -3.05938272	    -14.92550691	     14.58740693	     21.63782870	     90.00000000
      2.25000000	      0.60562427	     -1.64326625	      1.62210378	     -0.37235251	      0.92849495	     -0.17804738	     -5.16064174	      7.54499517	     -0.87632015	     -6.93631229	      9.16537808	     -0.68355228	      0.13298825	     23.35719633	     -0.16919780	     -0.85301756	    -43.30568289	      2.30245377	     -9.10294680	     21.10818846	     -7.12852327	      4.98438703	     -1.40920818	     -4.15095103	    -19.44277169	      4.86952379	     31.22286276	     90.00000000	     -3.33922367	    -14.86887304	     14.33083226	     21.26358315	     90.00000000
